<mxfile host="65bd71144e">
    <diagram id="thyRzS1RMwPvmYywjIk8" name="第 1 页">
        <mxGraphModel dx="1014" dy="722" grid="1" gridSize="10" guides="1" tooltips="1" connect="1" arrows="1" fold="1" page="1" pageScale="1" pageWidth="827" pageHeight="1169" math="0" shadow="0">
            <root>
                <mxCell id="0"/>
                <mxCell id="1" parent="0"/>
                <mxCell id="2" value="Flowns tech&amp;nbsp;structure" style="shape=umlFrame;whiteSpace=wrap;html=1;width=160;height=40;boundedLbl=1;verticalAlign=middle;align=left;spacingLeft=5;" vertex="1" parent="1">
                    <mxGeometry x="20" y="40" width="910" height="1430" as="geometry"/>
                </mxCell>
                <mxCell id="3" value="Admin Resource" style="swimlane;fontStyle=1;align=center;verticalAlign=middle;childLayout=stackLayout;horizontal=1;startSize=29;horizontalStack=0;resizeParent=1;resizeParentMax=0;resizeLast=0;collapsible=0;marginBottom=0;html=1;" vertex="1" parent="1">
                    <mxGeometry x="200" y="510" width="440" height="54" as="geometry"/>
                </mxCell>
                <mxCell id="5" value="- access(self) var server: Capability&amp;lt;&amp;amp;Flowns.RootDomainCollection&amp;gt;?" style="text;html=1;strokeColor=none;fillColor=none;align=left;verticalAlign=middle;spacingLeft=4;spacingRight=4;overflow=hidden;rotatable=0;points=[[0,0.5],[1,0.5]];portConstraint=eastwest;" vertex="1" parent="3">
                    <mxGeometry y="29" width="440" height="25" as="geometry"/>
                </mxCell>
                <mxCell id="23" value="&amp;lt;&amp;lt;&amp;nbsp;resource interface&amp;gt;&amp;gt;&lt;br&gt;AdminPrivate" style="swimlane;fontStyle=1;align=center;verticalAlign=middle;childLayout=stackLayout;horizontal=1;startSize=29;horizontalStack=0;resizeParent=1;resizeParentMax=0;resizeLast=0;collapsible=0;marginBottom=0;html=1;" vertex="1" parent="1">
                    <mxGeometry x="80" y="100" width="680" height="379" as="geometry"/>
                </mxCell>
                <mxCell id="24" value="&amp;lt;&amp;lt;methods&amp;gt;&amp;gt;" style="text;html=1;strokeColor=none;fillColor=none;align=center;verticalAlign=middle;spacingLeft=4;spacingRight=4;overflow=hidden;rotatable=0;points=[[0,0.5],[1,0.5]];portConstraint=eastwest;" vertex="1" parent="23">
                    <mxGeometry y="29" width="680" height="25" as="geometry"/>
                </mxCell>
                <mxCell id="25" value="+&amp;nbsp;addCapability(_ cap: Capability&amp;lt;&amp;amp;Flowns.RootDomainCollection&amp;gt;)" style="text;html=1;strokeColor=none;fillColor=none;align=left;verticalAlign=middle;spacingLeft=4;spacingRight=4;overflow=hidden;rotatable=0;points=[[0,0.5],[1,0.5]];portConstraint=eastwest;" vertex="1" parent="23">
                    <mxGeometry y="54" width="680" height="25" as="geometry"/>
                </mxCell>
                <mxCell id="28" value="+&amp;nbsp;&lt;span&gt;addRootDomainCapability(domainId: UInt64, cap: Capability&amp;lt;&amp;amp;Domains.Collection&amp;gt;)&lt;br&gt;&lt;/span&gt;" style="text;html=1;strokeColor=none;fillColor=none;align=left;verticalAlign=middle;spacingLeft=4;spacingRight=4;overflow=hidden;rotatable=0;points=[[0,0.5],[1,0.5]];portConstraint=eastwest;" vertex="1" parent="23">
                    <mxGeometry y="79" width="680" height="25" as="geometry"/>
                </mxCell>
                <mxCell id="27" value="+&amp;nbsp;createRootDomain(name: String, vault: @FungibleToken.Vault)" style="text;html=1;strokeColor=none;fillColor=none;align=left;verticalAlign=middle;spacingLeft=4;spacingRight=4;overflow=hidden;rotatable=0;points=[[0,0.5],[1,0.5]];portConstraint=eastwest;" vertex="1" parent="23">
                    <mxGeometry y="104" width="680" height="25" as="geometry"/>
                </mxCell>
                <mxCell id="29" value="+ setRentPrice(domainId: UInt64, len: Int, price: UFix64)" style="text;html=1;strokeColor=none;fillColor=none;align=left;verticalAlign=middle;spacingLeft=4;spacingRight=4;overflow=hidden;rotatable=0;points=[[0,0.5],[1,0.5]];portConstraint=eastwest;" vertex="1" parent="23">
                    <mxGeometry y="129" width="680" height="25" as="geometry"/>
                </mxCell>
                <mxCell id="30" value="+&amp;nbsp;createRootDomain(name: String, vault: @FungibleToken.Vault)" style="text;html=1;strokeColor=none;fillColor=none;align=left;verticalAlign=middle;spacingLeft=4;spacingRight=4;overflow=hidden;rotatable=0;points=[[0,0.5],[1,0.5]];portConstraint=eastwest;" vertex="1" parent="23">
                    <mxGeometry y="154" width="680" height="25" as="geometry"/>
                </mxCell>
                <mxCell id="33" value="+&amp;nbsp;&lt;span&gt;withdrawVault(domainId: UInt64, receiver: Capability&amp;lt;&amp;amp;{FungibleToken.Receiver}&amp;gt;, amount: UFix64)&lt;br&gt;&lt;/span&gt;" style="text;html=1;strokeColor=none;fillColor=none;align=left;verticalAlign=middle;spacingLeft=4;spacingRight=4;overflow=hidden;rotatable=0;points=[[0,0.5],[1,0.5]];portConstraint=eastwest;" vertex="1" parent="23">
                    <mxGeometry y="179" width="680" height="25" as="geometry"/>
                </mxCell>
                <mxCell id="34" value="&lt;span&gt;+ changeRootDomainVault(domainId: UInt64, vault: @FungibleToken.Vault)&lt;br&gt;&lt;/span&gt;" style="text;html=1;strokeColor=none;fillColor=none;align=left;verticalAlign=middle;spacingLeft=4;spacingRight=4;overflow=hidden;rotatable=0;points=[[0,0.5],[1,0.5]];portConstraint=eastwest;" vertex="1" parent="23">
                    <mxGeometry y="204" width="680" height="25" as="geometry"/>
                </mxCell>
                <mxCell id="32" value="&lt;span&gt;+ mintDomain(domainId: UInt64, name: String, duration: UFix64, receiver: Capability&amp;lt;&amp;amp;{NonFungibleToken.Receiver}&amp;gt;)&lt;br&gt;&lt;/span&gt;" style="text;html=1;strokeColor=none;fillColor=none;align=left;verticalAlign=middle;spacingLeft=4;spacingRight=4;overflow=hidden;rotatable=0;points=[[0,0.5],[1,0.5]];portConstraint=eastwest;" vertex="1" parent="23">
                    <mxGeometry y="229" width="680" height="25" as="geometry"/>
                </mxCell>
                <mxCell id="36" value="&lt;span&gt;+ setMinRentDuration(domainId: UInt64, duration: UFix64)&lt;br&gt;&lt;/span&gt;" style="text;html=1;strokeColor=none;fillColor=none;align=left;verticalAlign=middle;spacingLeft=4;spacingRight=4;overflow=hidden;rotatable=0;points=[[0,0.5],[1,0.5]];portConstraint=eastwest;" vertex="1" parent="23">
                    <mxGeometry y="254" width="680" height="25" as="geometry"/>
                </mxCell>
                <mxCell id="37" value="&lt;span&gt;+ setMaxDomainLength(domainId: UInt64, length: Int)&lt;br&gt;&lt;/span&gt;" style="text;html=1;strokeColor=none;fillColor=none;align=left;verticalAlign=middle;spacingLeft=4;spacingRight=4;overflow=hidden;rotatable=0;points=[[0,0.5],[1,0.5]];portConstraint=eastwest;" vertex="1" parent="23">
                    <mxGeometry y="279" width="680" height="25" as="geometry"/>
                </mxCell>
                <mxCell id="38" value="&lt;span&gt;+ setCommissionRate(domainId: UInt64, rate: UFix64)&lt;br&gt;&lt;/span&gt;" style="text;html=1;strokeColor=none;fillColor=none;align=left;verticalAlign=middle;spacingLeft=4;spacingRight=4;overflow=hidden;rotatable=0;points=[[0,0.5],[1,0.5]];portConstraint=eastwest;" vertex="1" parent="23">
                    <mxGeometry y="304" width="680" height="25" as="geometry"/>
                </mxCell>
                <mxCell id="39" value="&lt;span&gt;+ setDomainForbidChars(_ chars: String)&lt;br&gt;&lt;/span&gt;" style="text;html=1;strokeColor=none;fillColor=none;align=left;verticalAlign=middle;spacingLeft=4;spacingRight=4;overflow=hidden;rotatable=0;points=[[0,0.5],[1,0.5]];portConstraint=eastwest;" vertex="1" parent="23">
                    <mxGeometry y="329" width="680" height="25" as="geometry"/>
                </mxCell>
                <mxCell id="35" value="&lt;span&gt;+ setPause(_ flag: Bool)&lt;br&gt;&lt;/span&gt;" style="text;html=1;strokeColor=none;fillColor=none;align=left;verticalAlign=middle;spacingLeft=4;spacingRight=4;overflow=hidden;rotatable=0;points=[[0,0.5],[1,0.5]];portConstraint=eastwest;" vertex="1" parent="23">
                    <mxGeometry y="354" width="680" height="25" as="geometry"/>
                </mxCell>
                <mxCell id="42" style="edgeStyle=orthogonalEdgeStyle;rounded=0;orthogonalLoop=1;jettySize=auto;html=1;exitX=1;exitY=0.5;exitDx=0;exitDy=0;entryX=1;entryY=0.5;entryDx=0;entryDy=0;" edge="1" parent="1" source="25" target="5">
                    <mxGeometry relative="1" as="geometry">
                        <Array as="points">
                            <mxPoint x="780" y="167"/>
                            <mxPoint x="780" y="552"/>
                            <mxPoint x="670" y="552"/>
                        </Array>
                    </mxGeometry>
                </mxCell>
                <mxCell id="52" value="" style="edgeStyle=orthogonalEdgeStyle;rounded=0;orthogonalLoop=1;jettySize=auto;html=1;endArrow=block;endFill=1;dashed=1;exitX=0.25;exitY=0;exitDx=0;exitDy=0;" edge="1" parent="1" source="46" target="49">
                    <mxGeometry relative="1" as="geometry">
                        <Array as="points"/>
                    </mxGeometry>
                </mxCell>
                <mxCell id="57" style="edgeStyle=orthogonalEdgeStyle;rounded=0;orthogonalLoop=1;jettySize=auto;html=1;exitX=0.896;exitY=0;exitDx=0;exitDy=0;endArrow=block;endFill=1;dashed=1;exitPerimeter=0;" edge="1" parent="1" source="46" target="53">
                    <mxGeometry relative="1" as="geometry">
                        <Array as="points">
                            <mxPoint x="519" y="800"/>
                            <mxPoint x="480" y="800"/>
                        </Array>
                    </mxGeometry>
                </mxCell>
                <mxCell id="46" value="RootDomainCollection Resource" style="swimlane;fontStyle=1;align=center;verticalAlign=middle;childLayout=stackLayout;horizontal=1;startSize=29;horizontalStack=0;resizeParent=1;resizeParentMax=0;resizeLast=0;collapsible=0;marginBottom=0;html=1;" vertex="1" parent="1">
                    <mxGeometry x="295" y="920" width="250" height="79" as="geometry"/>
                </mxCell>
                <mxCell id="47" value="&amp;lt;&amp;lt;stereotype1&amp;gt;&amp;gt;" style="text;html=1;strokeColor=none;fillColor=none;align=center;verticalAlign=middle;spacingLeft=4;spacingRight=4;overflow=hidden;rotatable=0;points=[[0,0.5],[1,0.5]];portConstraint=eastwest;" vertex="1" parent="46">
                    <mxGeometry y="29" width="250" height="25" as="geometry"/>
                </mxCell>
                <mxCell id="48" value="stereotype property 1" style="text;html=1;strokeColor=none;fillColor=none;align=left;verticalAlign=middle;spacingLeft=4;spacingRight=4;overflow=hidden;rotatable=0;points=[[0,0.5],[1,0.5]];portConstraint=eastwest;" vertex="1" parent="46">
                    <mxGeometry y="54" width="250" height="25" as="geometry"/>
                </mxCell>
                <mxCell id="49" value="&amp;lt;&amp;lt;&amp;nbsp;resource interface&amp;gt;&amp;gt;&lt;br&gt;RootDomainCollectionPublic" style="swimlane;fontStyle=1;align=center;verticalAlign=middle;childLayout=stackLayout;horizontal=1;startSize=29;horizontalStack=0;resizeParent=1;resizeParentMax=0;resizeLast=0;collapsible=0;marginBottom=0;html=1;" vertex="1" parent="1">
                    <mxGeometry x="40" y="610" width="360" height="248" as="geometry"/>
                </mxCell>
                <mxCell id="50" value="&amp;lt;&amp;lt;methods&amp;gt;&amp;gt;" style="text;html=1;strokeColor=none;fillColor=none;align=center;verticalAlign=middle;spacingLeft=4;spacingRight=4;overflow=hidden;rotatable=0;points=[[0,0.5],[1,0.5]];portConstraint=eastwest;" vertex="1" parent="49">
                    <mxGeometry y="29" width="360" height="25" as="geometry"/>
                </mxCell>
                <mxCell id="64" value="+&amp;nbsp;getDomainInfo(domainId: UInt64) : RootDomainInfo" style="text;html=1;strokeColor=none;fillColor=none;align=left;verticalAlign=middle;spacingLeft=4;spacingRight=4;overflow=hidden;rotatable=0;points=[[0,0.5],[1,0.5]];portConstraint=eastwest;" vertex="1" parent="49">
                    <mxGeometry y="54" width="360" height="25" as="geometry"/>
                </mxCell>
                <mxCell id="65" value="+&amp;nbsp;getAllDomains(): {UInt64: RootDomainInfo}" style="text;html=1;strokeColor=none;fillColor=none;align=left;verticalAlign=middle;spacingLeft=4;spacingRight=4;overflow=hidden;rotatable=0;points=[[0,0.5],[1,0.5]];portConstraint=eastwest;" vertex="1" parent="49">
                    <mxGeometry y="79" width="360" height="25" as="geometry"/>
                </mxCell>
                <mxCell id="66" value="+&amp;nbsp;renewDomain(domainId: UInt64, domain: &amp;amp;Domains.NFT, &lt;br&gt;duration: UFix64, feeTokens: @FungibleToken.Vault)" style="text;html=1;strokeColor=none;fillColor=none;align=left;verticalAlign=middle;spacingLeft=4;spacingRight=4;overflow=hidden;rotatable=0;points=[[0,0.5],[1,0.5]];portConstraint=eastwest;" vertex="1" parent="49">
                    <mxGeometry y="104" width="360" height="36" as="geometry"/>
                </mxCell>
                <mxCell id="67" value="+ registerDomain(domainId: UInt64, name: String, &lt;br&gt;duration: UFix64, feeTokens: @FungibleToken.Vault, &lt;br&gt;receiver: Capability&amp;lt;&amp;amp;{NonFungibleToken.Receiver}&amp;gt;,&amp;nbsp;&lt;br&gt;&amp;nbsp;refer: Address? )" style="text;html=1;strokeColor=none;fillColor=none;align=left;verticalAlign=middle;spacingLeft=4;spacingRight=4;overflow=hidden;rotatable=0;points=[[0,0.5],[1,0.5]];portConstraint=eastwest;" vertex="1" parent="49">
                    <mxGeometry y="140" width="360" height="60" as="geometry"/>
                </mxCell>
                <mxCell id="68" value="+&amp;nbsp;&lt;span&gt;getPrices(domainId: UInt64): {Int: UFix64}&lt;br&gt;&lt;/span&gt;" style="text;html=1;strokeColor=none;fillColor=none;align=left;verticalAlign=middle;spacingLeft=4;spacingRight=4;overflow=hidden;rotatable=0;points=[[0,0.5],[1,0.5]];portConstraint=eastwest;" vertex="1" parent="49">
                    <mxGeometry y="200" width="360" height="24" as="geometry"/>
                </mxCell>
                <mxCell id="51" value="+&amp;nbsp;&lt;span&gt;getVaultBalance(domainId: UInt64): UFix64&lt;br&gt;&lt;/span&gt;" style="text;html=1;strokeColor=none;fillColor=none;align=left;verticalAlign=middle;spacingLeft=4;spacingRight=4;overflow=hidden;rotatable=0;points=[[0,0.5],[1,0.5]];portConstraint=eastwest;" vertex="1" parent="49">
                    <mxGeometry y="224" width="360" height="24" as="geometry"/>
                </mxCell>
                <mxCell id="53" value="&amp;lt;&amp;lt;&amp;nbsp;resource interface&amp;gt;&amp;gt;&lt;br&gt;RootDomainCollectionAdmin" style="swimlane;fontStyle=1;align=center;verticalAlign=middle;childLayout=stackLayout;horizontal=1;startSize=29;horizontalStack=0;resizeParent=1;resizeParentMax=0;resizeLast=0;collapsible=0;marginBottom=0;html=1;" vertex="1" parent="1">
                    <mxGeometry x="440" y="610" width="440" height="270" as="geometry"/>
                </mxCell>
                <mxCell id="54" value="&amp;lt;&amp;lt;methods&amp;gt;&amp;gt;" style="text;html=1;strokeColor=none;fillColor=none;align=center;verticalAlign=middle;spacingLeft=4;spacingRight=4;overflow=hidden;rotatable=0;points=[[0,0.5],[1,0.5]];portConstraint=eastwest;" vertex="1" parent="53">
                    <mxGeometry y="29" width="440" height="25" as="geometry"/>
                </mxCell>
                <mxCell id="55" value="-&amp;nbsp;createRootDomain(name: String, vault: @FungibleToken.Vault)" style="text;html=1;strokeColor=none;fillColor=none;align=left;verticalAlign=middle;spacingLeft=4;spacingRight=4;overflow=hidden;rotatable=0;points=[[0,0.5],[1,0.5]];portConstraint=eastwest;" vertex="1" parent="53">
                    <mxGeometry y="54" width="440" height="25" as="geometry"/>
                </mxCell>
                <mxCell id="70" value="-&amp;nbsp;withdrawVault(domainId: UInt64, &lt;br&gt;receiver: Capability&amp;lt;&amp;amp;{FungibleToken.Receiver}&amp;gt;, amount: UFix64)" style="text;html=1;strokeColor=none;fillColor=none;align=left;verticalAlign=middle;spacingLeft=4;spacingRight=4;overflow=hidden;rotatable=0;points=[[0,0.5],[1,0.5]];portConstraint=eastwest;" vertex="1" parent="53">
                    <mxGeometry y="79" width="440" height="31" as="geometry"/>
                </mxCell>
                <mxCell id="71" value="-&amp;nbsp;&lt;span&gt;changeRootDomainVault(domainId: UInt64, vault: @FungibleToken.Vault)&lt;br&gt;&lt;/span&gt;" style="text;html=1;strokeColor=none;fillColor=none;align=left;verticalAlign=middle;spacingLeft=4;spacingRight=4;overflow=hidden;rotatable=0;points=[[0,0.5],[1,0.5]];portConstraint=eastwest;" vertex="1" parent="53">
                    <mxGeometry y="110" width="440" height="25" as="geometry"/>
                </mxCell>
                <mxCell id="72" value="&lt;span&gt;- setPrices(domainId: UInt64, len: Int, price: UFix64)&lt;br&gt;&lt;/span&gt;" style="text;html=1;strokeColor=none;fillColor=none;align=left;verticalAlign=middle;spacingLeft=4;spacingRight=4;overflow=hidden;rotatable=0;points=[[0,0.5],[1,0.5]];portConstraint=eastwest;" vertex="1" parent="53">
                    <mxGeometry y="135" width="440" height="25" as="geometry"/>
                </mxCell>
                <mxCell id="73" value="&lt;span&gt;-&amp;nbsp;&lt;/span&gt;&lt;span&gt;setMinRentDuration(domainId: UInt64, duration: UFix64)&lt;br&gt;&lt;/span&gt;" style="text;html=1;strokeColor=none;fillColor=none;align=left;verticalAlign=middle;spacingLeft=4;spacingRight=4;overflow=hidden;rotatable=0;points=[[0,0.5],[1,0.5]];portConstraint=eastwest;" vertex="1" parent="53">
                    <mxGeometry y="160" width="440" height="25" as="geometry"/>
                </mxCell>
                <mxCell id="74" value="&lt;span&gt;- setMaxDomainLength(domainId: UInt64, length: Int)&lt;br&gt;&lt;/span&gt;" style="text;html=1;strokeColor=none;fillColor=none;align=left;verticalAlign=middle;spacingLeft=4;spacingRight=4;overflow=hidden;rotatable=0;points=[[0,0.5],[1,0.5]];portConstraint=eastwest;" vertex="1" parent="53">
                    <mxGeometry y="185" width="440" height="25" as="geometry"/>
                </mxCell>
                <mxCell id="75" value="&lt;span&gt;- setCommissionRate(domainId: UInt64, rate: UFix64)&lt;br&gt;&lt;/span&gt;" style="text;html=1;strokeColor=none;fillColor=none;align=left;verticalAlign=middle;spacingLeft=4;spacingRight=4;overflow=hidden;rotatable=0;points=[[0,0.5],[1,0.5]];portConstraint=eastwest;" vertex="1" parent="53">
                    <mxGeometry y="210" width="440" height="25" as="geometry"/>
                </mxCell>
                <mxCell id="76" value="&lt;span&gt;-&amp;nbsp;&lt;/span&gt;&lt;span&gt;mintDomain(domainId: UInt64, name: String, duration: UFix64, &lt;br&gt;receiver: Capability&amp;lt;&amp;amp;{NonFungibleToken.Receiver}&amp;gt;)&lt;/span&gt;&lt;span&gt;&lt;br&gt;&lt;/span&gt;" style="text;html=1;strokeColor=none;fillColor=none;align=left;verticalAlign=middle;spacingLeft=4;spacingRight=4;overflow=hidden;rotatable=0;points=[[0,0.5],[1,0.5]];portConstraint=eastwest;" vertex="1" parent="53">
                    <mxGeometry y="235" width="440" height="35" as="geometry"/>
                </mxCell>
                <mxCell id="60" value="" style="endArrow=block;startArrow=none;endFill=0;startFill=0;endSize=8;html=1;verticalAlign=bottom;labelBackgroundColor=none;exitX=0.5;exitY=0;exitDx=0;exitDy=0;" edge="1" parent="1" source="3">
                    <mxGeometry width="160" relative="1" as="geometry">
                        <mxPoint x="280" y="460" as="sourcePoint"/>
                        <mxPoint x="420" y="480" as="targetPoint"/>
                    </mxGeometry>
                </mxCell>
                <mxCell id="62" style="edgeStyle=orthogonalEdgeStyle;rounded=0;orthogonalLoop=1;jettySize=auto;html=1;exitX=0;exitY=0.5;exitDx=0;exitDy=0;entryX=0.5;entryY=0;entryDx=0;entryDy=0;endArrow=open;endFill=0;" edge="1" parent="1" source="5" target="46">
                    <mxGeometry relative="1" as="geometry">
                        <Array as="points">
                            <mxPoint x="170" y="552"/>
                            <mxPoint x="170" y="590"/>
                            <mxPoint x="420" y="590"/>
                        </Array>
                    </mxGeometry>
                </mxCell>
            </root>
        </mxGraphModel>
    </diagram>
</mxfile>